<svg xmlns="http://www.w3.org/2000/svg" viewBox="0 0 30 20">
  <rect width="30" height="20" fill="#DE2910"/>
  <g fill="#FFDE00">
    <polygon points="5,3 5.588,4.809 7.5,4.809 5.956,5.882 6.545,7.691 5,6.618 3.455,7.691 4.044,5.882 2.5,4.809 4.412,4.809"/>
    <polygon points="10.2,1.6 10.352,2.066 10.842,2.066 10.445,2.338 10.597,2.804 10.2,2.532 9.803,2.804 9.955,2.338 9.558,2.066 10.048,2.066"/>
    <polygon points="12.2,3.7 12.352,4.166 12.842,4.166 12.445,4.438 12.597,4.904 12.2,4.632 11.803,4.904 11.955,4.438 11.558,4.166 12.048,4.166"/>
    <polygon points="12.2,6.5 12.352,6.966 12.842,6.966 12.445,7.238 12.597,7.704 12.2,7.432 11.803,7.704 11.955,7.238 11.558,6.966 12.048,6.966"/>
    <polygon points="10.2,8.6 10.352,9.066 10.842,9.066 10.445,9.338 10.597,9.804 10.2,9.532 9.803,9.804 9.955,9.338 9.558,9.066 10.048,9.066"/>
  </g>
</svg>
